<svg xmlns="http://www.w3.org/2000/svg" viewBox="0 0 32 32" width="32" height="32">
  <rect width="32" height="32" rx="6" fill="#0079c2"/>
  <g fill="none" stroke="#fff" stroke-width="1.6" stroke-linecap="round" stroke-linejoin="round">
    <path d="M13 5 C 11 5, 9.5 6.2, 9.5 7.8 C 8.2 8.3, 7.5 9.4, 7.5 10.6 C 7.5 11.7, 8 12.5, 8.8 13 C 8.4 13.5, 8.3 14.2, 8.6 14.8 C 9.1 15.6, 10.2 16, 11.3 15.8 L 16 15.5 L 16 5.5 C 15 5, 14 5, 13 5 Z"/>
    <path d="M19 5 C 21 5, 22.5 6.2, 22.5 7.8 C 23.8 8.3, 24.5 9.4, 24.5 10.6 C 24.5 11.7, 24 12.5, 23.2 13 C 23.6 13.5, 23.7 14.2, 23.4 14.8 C 22.9 15.6, 21.8 16, 20.7 15.8 L 16 15.5 L 16 5.5 C 17 5, 18 5, 19 5 Z"/>
    <line x1="16" y1="6" x2="16" y2="15.5" stroke-opacity="0.55"/>
    <path d="M11.5 8.5 Q 13 10, 12 11.5" stroke-opacity="0.55"/>
    <path d="M20.5 8.5 Q 19 10, 20 11.5" stroke-opacity="0.55"/>
    <path d="M16 19 L 16 27 M 16 19 C 13 17.5, 8 17.5, 4 18.5 L 4 26 C 8 25, 13 25, 16 26.5 C 19 25, 24 25, 28 26 L 28 18.5 C 24 17.5, 19 17.5, 16 19 Z"/>
  </g>
</svg>
